<svg width="24" height="24" fill="none" xmlns="http://www.w3.org/2000/svg"><path d="M15.618 12.879a.86.86 0 0 1-.272-1.367 18.92 18.92 0 0 0 3.294-4.887A4.933 4.933 0 0 0 17.263.694a.952.952 0 0 0-1.456.344l-4.084 8.74-.912 1.952a.954.954 0 0 1-.864.55H9.94a.955.955 0 0 1-.923-1.196c.45-1.749.69-3.581.69-5.47A5.71 5.71 0 0 0 5.138.019.953.953 0 0 0 4 .955v19.388A3.656 3.656 0 0 0 7.657 24h6.483a5.236 5.236 0 0 0 5.236-5.236 6.483 6.483 0 0 0-3.758-5.885Zm-6.762 6.789c-.75 0-1.246-.78-.93-1.461a3.48 3.48 0 0 1 6.316 0 1.026 1.026 0 0 1-.93 1.46H8.856Z" fill="#fff"/></svg>